<svg width="20" height="20" viewBox="0 0 20 20" fill="none" xmlns="http://www.w3.org/2000/svg">
<path fill-rule="evenodd" clip-rule="evenodd" d="M7.7085 3.33335C7.7085 2.0677 8.73451 1.04169 10.0002 1.04169C11.2658 1.04169 12.2918 2.0677 12.2918 3.33335C12.2918 4.59901 11.2658 5.62502 10.0002 5.62502C8.73451 5.62502 7.7085 4.59901 7.7085 3.33335Z" fill="#363062"/>
<path d="M6.85241 9.64529L5.03967 9.04104C4.51822 8.86722 4.1665 8.37924 4.1665 7.82959C4.1665 7.01661 4.91611 6.41061 5.71105 6.58096L7.29235 6.91981C7.38029 6.93865 7.42425 6.94807 7.46784 6.95709C9.13816 7.30259 10.8615 7.30259 12.5318 6.95709C12.5754 6.94807 12.6194 6.93865 12.7073 6.91981L14.2886 6.58096C15.0836 6.41061 15.8332 7.01661 15.8332 7.82959C15.8332 8.37924 15.4815 8.86722 14.96 9.04104L13.1473 9.64529C12.9282 9.71831 12.8187 9.75482 12.7363 9.80566C12.4558 9.97882 12.3037 10.3011 12.3484 10.6277C12.3615 10.7236 12.4029 10.8313 12.4858 11.0469L13.5248 13.7483C13.8341 14.5524 13.2405 15.4167 12.379 15.4167C11.9384 15.4167 11.5316 15.1806 11.313 14.7981L9.99984 12.5L8.68665 14.7981C8.46807 15.1806 8.06128 15.4167 7.62072 15.4167C6.75915 15.4167 6.16558 14.5524 6.47486 13.7483L7.51385 11.0469C7.59675 10.8313 7.6382 10.7236 7.65131 10.6277C7.69597 10.3011 7.5439 9.97882 7.26338 9.80566C7.18101 9.75482 7.07148 9.71831 6.85241 9.64529Z" fill="#363062"/>
<path d="M9.99984 18.3333C14.6022 18.3333 18.3332 16.6544 18.3332 14.5833C18.3332 13.1485 16.5423 11.9018 13.9115 11.2713L14.6915 13.2993C15.3157 14.9222 14.1177 16.6665 12.379 16.6665C11.4898 16.6665 10.6689 16.19 10.2277 15.4181L9.99984 15.0192L9.77195 15.4181C9.33082 16.19 8.50985 16.6665 7.62072 16.6665C5.88193 16.6665 4.68399 14.9222 5.30818 13.2993L6.08819 11.2713C3.45739 11.9018 1.6665 13.1485 1.6665 14.5833C1.6665 16.6544 5.39746 18.3333 9.99984 18.3333Z" fill="#363062"/>
</svg>
