<svg width="16" height="16" viewBox="0 0 16 16" fill="none" xmlns="http://www.w3.org/2000/svg">
<path d="M4.8125 0.875C4.8125 0.56434 4.56066 0.3125 4.25 0.3125C3.93934 0.3125 3.6875 0.56434 3.6875 0.875V2.05944C2.608 2.14588 1.89933 2.35803 1.37868 2.87868C0.858031 3.39933 0.645885 4.108 0.559443 5.1875H15.4406C15.3541 4.108 15.142 3.39933 14.6213 2.87868C14.1007 2.35803 13.392 2.14588 12.3125 2.05944V0.875C12.3125 0.56434 12.0607 0.3125 11.75 0.3125C11.4393 0.3125 11.1875 0.56434 11.1875 0.875V2.00968C10.6886 2 10.1293 2 9.5 2H6.5C5.87072 2 5.31145 2 4.8125 2.00968V0.875Z" fill="#8683A1"/>
<path fill-rule="evenodd" clip-rule="evenodd" d="M15.5 8V9.5C15.5 12.3284 15.5 13.7426 14.6213 14.6213C13.7426 15.5 12.3284 15.5 9.5 15.5H6.5C3.67157 15.5 2.25736 15.5 1.37868 14.6213C0.5 13.7426 0.5 12.3284 0.5 9.5V8C0.5 7.37072 0.5 6.81145 0.509677 6.3125H15.4903C15.5 6.81145 15.5 7.37072 15.5 8ZM11.375 12.5C11.9963 12.5 12.5 11.9963 12.5 11.375C12.5 10.7537 11.9963 10.25 11.375 10.25C10.7537 10.25 10.25 10.7537 10.25 11.375C10.25 11.9963 10.7537 12.5 11.375 12.5Z" fill="#8683A1"/>
</svg>
