<svg width="17" height="17" viewBox="0 0 17 17" fill="none" xmlns="http://www.w3.org/2000/svg">
<path fill-rule="evenodd" clip-rule="evenodd" d="M15.1926 7.81267C15.1774 7.81251 15.1574 7.8125 15.125 7.8125H13.1731C12.1055 7.8125 11.3125 8.60655 11.3125 9.5C11.3125 10.3934 12.1055 11.1875 13.1731 11.1875H15.125C15.1574 11.1875 15.1774 11.1875 15.1926 11.1873C15.207 11.1872 15.211 11.1869 15.211 11.1869C15.3655 11.1775 15.432 11.0732 15.4371 11.0104C15.4371 11.0104 15.4372 11.0057 15.4373 10.9989C15.4375 10.9856 15.4375 10.9679 15.4375 10.9375V8.0625C15.4375 8.04569 15.4375 8.03275 15.4375 8.02228C15.4374 8.01384 15.4374 8.00701 15.4373 8.00107C15.4372 7.99427 15.4371 7.98956 15.4371 7.98956C15.432 7.9268 15.3655 7.82247 15.211 7.81307C15.211 7.81307 15.2073 7.81282 15.1926 7.81267ZM15.1374 6.6875C15.1872 6.68748 15.2352 6.68746 15.2793 6.69014C15.9328 6.72992 16.5108 7.22285 16.5594 7.91134C16.5626 7.95649 16.5625 8.00515 16.5625 8.05026C16.5625 8.05437 16.5625 8.05845 16.5625 8.0625V10.9375C16.5625 10.9415 16.5625 10.9456 16.5625 10.9497C16.5625 10.9948 16.5626 11.0435 16.5594 11.0887C16.5108 11.7772 15.9328 12.2701 15.2793 12.3099C15.2352 12.3125 15.1872 12.3125 15.1374 12.3125C15.1333 12.3125 15.1292 12.3125 15.125 12.3125H13.1731C11.5642 12.3125 10.1875 11.0918 10.1875 9.5C10.1875 7.90817 11.5642 6.6875 13.1731 6.6875H15.125C15.1292 6.6875 15.1333 6.6875 15.1374 6.6875Z" fill="white"/>
<path d="M13.75 9.5C13.75 9.91421 13.4142 10.25 13 10.25C12.5858 10.25 12.25 9.91421 12.25 9.5C12.25 9.08579 12.5858 8.75 13 8.75C13.4142 8.75 13.75 9.08579 13.75 9.5Z" fill="white"/>
<path fill-rule="evenodd" clip-rule="evenodd" d="M15.1374 6.6875C15.1872 6.68748 15.2352 6.68746 15.2793 6.69014C15.4484 6.70043 15.6124 6.74106 15.7635 6.80756C15.6833 5.60272 15.4624 4.67422 14.7691 3.98093C14.2078 3.41966 13.4961 3.17057 12.6168 3.05235L12.585 3.04815C12.5772 3.04233 12.5691 3.03667 12.5608 3.03119L9.75924 1.17354C8.78187 0.525486 7.46813 0.525485 6.49077 1.17354L3.68915 3.03119C3.68089 3.03667 3.67283 3.04233 3.66495 3.04815L3.63323 3.05235C2.75392 3.17057 2.0422 3.41966 1.48093 3.98093C0.91966 4.5422 0.670572 5.25392 0.552351 6.13323C0.437479 6.98764 0.437488 8.07937 0.4375 9.45769V9.54231C0.437488 10.9206 0.437479 12.0124 0.552351 12.8668C0.670572 13.7461 0.91966 14.4578 1.48093 15.0191C2.04221 15.5803 2.75392 15.8294 3.63323 15.9476C4.48764 16.0625 5.57937 16.0625 6.95769 16.0625H9.29231C10.6706 16.0625 11.7624 16.0625 12.6168 15.9476C13.4961 15.8294 14.2078 15.5803 14.7691 15.0191C15.4624 14.3258 15.6833 13.3973 15.7635 12.1924C15.6124 12.2589 15.4484 12.2996 15.2793 12.3099C15.2352 12.3125 15.1872 12.3125 15.1374 12.3125L15.125 12.3125H14.6259C14.5406 13.3186 14.3475 13.8497 13.9736 14.2236C13.6562 14.541 13.2214 14.7312 12.4669 14.8327C11.6961 14.9363 10.6801 14.9375 9.25 14.9375H7C5.56989 14.9375 4.55389 14.9363 3.78314 14.8327C3.02857 14.7312 2.59384 14.541 2.27643 14.2236C1.95902 13.9062 1.76877 13.4714 1.66732 12.7169C1.5637 11.9461 1.5625 10.9301 1.5625 9.5C1.5625 8.06989 1.5637 7.05388 1.66732 6.28314C1.76877 5.52857 1.95902 5.09383 2.27643 4.77643C2.59383 4.45902 3.02857 4.26877 3.78314 4.16732C4.55388 4.06369 5.56988 4.0625 7 4.0625H9.25C10.6801 4.0625 11.6961 4.06369 12.4669 4.16732C13.2214 4.26877 13.6562 4.45902 13.9736 4.77643C14.3475 5.15032 14.5406 5.68141 14.6259 6.6875H15.125L15.1374 6.6875ZM6.95769 2.9375H9.29231C9.67969 2.9375 10.0444 2.93749 10.3876 2.94004L9.13754 2.11116C8.53698 1.71295 7.71302 1.71295 7.11246 2.11116L5.86238 2.94004C6.20558 2.93749 6.57031 2.9375 6.95769 2.9375Z" fill="white"/>
<path d="M4 5.9375C3.68934 5.9375 3.4375 6.18934 3.4375 6.5C3.4375 6.81066 3.68934 7.0625 4 7.0625H7C7.31066 7.0625 7.5625 6.81066 7.5625 6.5C7.5625 6.18934 7.31066 5.9375 7 5.9375H4Z" fill="white"/>
<path fill-rule="evenodd" clip-rule="evenodd" d="M13.75 9.5C13.75 9.91421 13.4142 10.25 13 10.25C12.5858 10.25 12.25 9.91421 12.25 9.5C12.25 9.08579 12.5858 8.75 13 8.75C13.4142 8.75 13.75 9.08579 13.75 9.5Z" fill="white"/>
</svg>
