<svg width="20" height="20" viewBox="0 0 20 20" fill="none" xmlns="http://www.w3.org/2000/svg">
<path d="M19.5299 8.87L18.0099 7.35001C17.7499 7.09 17.5399 6.58001 17.5399 6.22001V4.06C17.5399 3.18 16.8199 2.46 15.9399 2.46H13.7899C13.4299 2.46 12.9199 2.25 12.6599 1.99L11.1399 0.470005C10.5199 -0.149995 9.49988 -0.149995 8.87988 0.470005L7.33988 1.99C7.08988 2.25 6.57988 2.46 6.20988 2.46H4.05988C3.17988 2.46 2.45988 3.18 2.45988 4.06V6.21C2.45988 6.57 2.24988 7.08 1.98988 7.34L0.469883 8.86C-0.150117 9.48 -0.150117 10.5 0.469883 11.12L1.98988 12.64C2.24988 12.9 2.45988 13.41 2.45988 13.77V15.92C2.45988 16.8 3.17988 17.52 4.05988 17.52H6.20988C6.56988 17.52 7.07988 17.73 7.33988 17.99L8.85988 19.51C9.47988 20.13 10.4999 20.13 11.1199 19.51L12.6399 17.99C12.8999 17.73 13.4099 17.52 13.7699 17.52H15.9199C16.7999 17.52 17.5199 16.8 17.5199 15.92V13.77C17.5199 13.41 17.7299 12.9 17.9899 12.64L19.5099 11.12C20.1599 10.51 20.1599 9.49 19.5299 8.87ZM5.99988 7C5.99988 6.45 6.44988 6 6.99988 6C7.54988 6 7.99988 6.45 7.99988 7C7.99988 7.55 7.55988 8 6.99988 8C6.44988 8 5.99988 7.55 5.99988 7ZM7.52988 13.53C7.37988 13.68 7.18988 13.75 6.99988 13.75C6.80988 13.75 6.61988 13.68 6.46988 13.53C6.17988 13.24 6.17988 12.76 6.46988 12.47L12.4699 6.47001C12.7599 6.18001 13.2399 6.18001 13.5299 6.47001C13.8199 6.76 13.8199 7.24 13.5299 7.53L7.52988 13.53ZM12.9999 14C12.4399 14 11.9899 13.55 11.9899 13C11.9899 12.45 12.4399 12 12.9899 12C13.5399 12 13.9899 12.45 13.9899 13C13.9899 13.55 13.5499 14 12.9999 14Z" fill="#363062"/>
</svg>
