<svg width="22" height="21" viewBox="0 0 22 21" fill="none" xmlns="http://www.w3.org/2000/svg">
<path fill-rule="evenodd" clip-rule="evenodd" d="M11.5 13.25C11.9142 13.25 12.25 13.5858 12.25 14V18.1893L12.9697 17.4697C13.2626 17.1768 13.7374 17.1768 14.0303 17.4697C14.3232 17.7626 14.3232 18.2374 14.0303 18.5303L12.0303 20.5303C11.7374 20.8232 11.2626 20.8232 10.9697 20.5303L8.96967 18.5303C8.67678 18.2374 8.67678 17.7626 8.96967 17.4697C9.26256 17.1768 9.73744 17.1768 10.0303 17.4697L10.75 18.1893V14C10.75 13.5858 11.0858 13.25 11.5 13.25Z" fill="#363062"/>
<path d="M11.7262 1.5C8.9761 1.5 6.7619 3.70083 6.7619 6.39706C6.7619 6.85922 6.8266 7.30551 6.94729 7.72813C7.44449 7.87162 7.90991 8.0889 8.33045 8.36709C8.67592 8.59561 8.77072 9.06093 8.54219 9.4064C8.31366 9.75187 7.84835 9.84666 7.50288 9.61814C7.12207 9.36623 6.68917 9.18553 6.2233 9.09513C6.00147 9.05209 5.77165 9.02941 5.53571 9.02941C3.5746 9.02941 2 10.5982 2 12.5147C2 14.4312 3.5746 16 5.53571 16C5.94993 16 6.28571 16.3358 6.28571 16.75C6.28571 17.1642 5.94993 17.5 5.53571 17.5C2.76296 17.5 0.5 15.2764 0.5 12.5147C0.5 9.81046 2.66987 7.62207 5.36351 7.53228C5.29673 7.16355 5.2619 6.78413 5.2619 6.39706C5.2619 2.85572 8.16446 0 11.7262 0C14.8843 0 17.5224 2.24369 18.0814 5.22127C20.3813 6.19751 22 8.45929 22 11.1029C22 14.1769 19.8123 16.7343 16.9068 17.3557C16.5018 17.4423 16.1032 17.1841 16.0166 16.7791C15.93 16.374 16.1881 15.9754 16.5932 15.8888C18.8329 15.4098 20.5 13.443 20.5 11.1029C20.5 8.96622 19.1107 7.14087 17.1624 6.47463C16.6538 6.30072 16.1068 6.20588 15.5357 6.20588C14.9531 6.20588 14.3955 6.30458 13.8783 6.48526C13.4872 6.62185 13.0595 6.41557 12.9229 6.02453C12.7863 5.63348 12.9926 5.20575 13.3836 5.06916C14.0579 4.83364 14.7826 4.70588 15.5357 4.70588C15.8312 4.70588 16.1223 4.72555 16.4077 4.76367C15.727 2.86631 13.8922 1.5 11.7262 1.5Z" fill="#363062"/>
</svg>
