<svg width="16" height="16" viewBox="0 0 16 16" fill="none" xmlns="http://www.w3.org/2000/svg">
<path d="M4.8125 0.875C4.8125 0.56434 4.56066 0.3125 4.25 0.3125C3.93934 0.3125 3.6875 0.56434 3.6875 0.875V2.05944C2.608 2.14588 1.89933 2.35803 1.37868 2.87868C0.858031 3.39933 0.645885 4.108 0.559443 5.1875H15.4406C15.3541 4.108 15.142 3.39933 14.6213 2.87868C14.1007 2.35803 13.392 2.14588 12.3125 2.05944V0.875C12.3125 0.56434 12.0607 0.3125 11.75 0.3125C11.4393 0.3125 11.1875 0.56434 11.1875 0.875V2.00968C10.6886 2 10.1293 2 9.5 2H6.5C5.87072 2 5.31145 2 4.8125 2.00968V0.875Z" fill="#111827"/>
<path fill-rule="evenodd" clip-rule="evenodd" d="M0.5 8C0.5 7.37072 0.5 6.81145 0.509677 6.3125H15.4903C15.5 6.81145 15.5 7.37072 15.5 8V9.5C15.5 12.3284 15.5 13.7426 14.6213 14.6213C13.7426 15.5 12.3284 15.5 9.5 15.5H6.5C3.67157 15.5 2.25736 15.5 1.37868 14.6213C0.5 13.7426 0.5 12.3284 0.5 9.5V8ZM11.75 9.5C12.1642 9.5 12.5 9.16421 12.5 8.75C12.5 8.33579 12.1642 8 11.75 8C11.3358 8 11 8.33579 11 8.75C11 9.16421 11.3358 9.5 11.75 9.5ZM11.75 12.5C12.1642 12.5 12.5 12.1642 12.5 11.75C12.5 11.3358 12.1642 11 11.75 11C11.3358 11 11 11.3358 11 11.75C11 12.1642 11.3358 12.5 11.75 12.5ZM8.75 8.75C8.75 9.16421 8.41421 9.5 8 9.5C7.58579 9.5 7.25 9.16421 7.25 8.75C7.25 8.33579 7.58579 8 8 8C8.41421 8 8.75 8.33579 8.75 8.75ZM8.75 11.75C8.75 12.1642 8.41421 12.5 8 12.5C7.58579 12.5 7.25 12.1642 7.25 11.75C7.25 11.3358 7.58579 11 8 11C8.41421 11 8.75 11.3358 8.75 11.75ZM4.25 9.5C4.66421 9.5 5 9.16421 5 8.75C5 8.33579 4.66421 8 4.25 8C3.83579 8 3.5 8.33579 3.5 8.75C3.5 9.16421 3.83579 9.5 4.25 9.5ZM4.25 12.5C4.66421 12.5 5 12.1642 5 11.75C5 11.3358 4.66421 11 4.25 11C3.83579 11 3.5 11.3358 3.5 11.75C3.5 12.1642 3.83579 12.5 4.25 12.5Z" fill="#111827"/>
</svg>
