<svg width="100" height="142" viewBox="0 0 100 142" fill="none" xmlns="http://www.w3.org/2000/svg">
<mask id="mask0_13_20679" style="mask-type:luminance" maskUnits="userSpaceOnUse" x="0" y="0" width="100" height="100">
<path d="M99.7581 0H0V99.1418H99.7581V0Z" fill="white"/>
</mask>
<g mask="url(#mask0_13_20679)">
<path fill-rule="evenodd" clip-rule="evenodd" d="M16.3629 12.2878C16.5991 12.0727 16.8753 11.9063 17.1757 11.798C17.4762 11.6897 17.7951 11.6417 18.1141 11.6566C18.4331 11.6716 18.7461 11.7493 19.035 11.8854C19.324 12.0213 19.5835 12.2129 19.7984 12.4492C20.0134 12.6855 20.1798 12.9618 20.288 13.2624C20.3963 13.563 20.4443 13.882 20.4293 14.2011C20.4143 14.5203 20.3366 14.8334 20.2007 15.1225C20.0648 15.4117 19.8733 15.6711 19.6371 15.8862C13.1525 21.7745 8.52356 29.4258 6.31648 37.9042C4.10938 46.3827 4.41979 55.3209 7.20972 63.6257C8.47421 67.3757 10.2315 70.9408 12.4355 74.2272C12.6129 74.4921 12.7364 74.7894 12.799 75.102C12.8615 75.4146 12.8619 75.7366 12.8002 76.0494C12.7384 76.3622 12.6157 76.6597 12.4389 76.925C12.2622 77.1904 12.0349 77.4182 11.7702 77.5957C11.5054 77.7732 11.2083 77.8967 10.8958 77.9594C10.5833 78.022 10.2616 78.0224 9.94896 77.9606C9.6363 77.8988 9.33888 77.776 9.07364 77.5991C8.80848 77.4223 8.58066 77.195 8.40324 76.9301C1.75474 66.9874 -1.09927 54.9848 0.361943 43.112C1.82316 31.2393 7.50221 20.2877 16.3629 12.2555V12.2878ZM32.8871 96.1969C32.2819 95.9767 31.7889 95.5248 31.5166 94.9407C31.2444 94.3566 31.2153 93.6885 31.4355 93.0826C31.6558 92.4767 32.1076 91.9837 32.6913 91.7118C33.2751 91.4391 33.9432 91.4101 34.5484 91.6303C37.4224 92.6695 40.3948 93.4126 43.4194 93.8491C46.4607 94.2839 49.5381 94.4106 52.6049 94.2283C56.9123 93.9741 61.1605 93.0995 65.2178 91.6303C65.5175 91.5246 65.8351 91.4786 66.1526 91.4956C66.47 91.5125 66.781 91.5916 67.0678 91.7288C67.3546 91.8659 67.6116 92.0579 67.8241 92.2943C68.0367 92.5307 68.2006 92.8067 68.3065 93.1068C68.4124 93.4069 68.4582 93.7248 68.4414 94.0419C68.4245 94.3598 68.3453 94.6704 68.2083 94.9576C68.0712 95.2449 67.879 95.5014 67.6427 95.7144C67.4063 95.9266 67.1304 96.0912 66.8307 96.1969C64.5891 97.015 62.2897 97.6645 59.9516 98.1413C57.6087 98.6238 55.2345 98.9393 52.8468 99.0853C49.472 99.2773 46.0863 99.1265 42.742 98.6335C39.3864 98.151 36.0895 97.3232 32.9032 96.1646L32.8871 96.1969ZM91.3549 76.9866C91.1775 77.2514 90.9501 77.4788 90.6848 77.6556C90.4194 77.8324 90.1219 77.9552 89.809 78.017C89.4969 78.0788 89.1751 78.0784 88.8622 78.0158C88.5501 77.9532 88.2525 77.8297 87.988 77.6522C87.7235 77.4747 87.4961 77.2468 87.3195 76.9815C87.1428 76.7162 87.0195 76.4186 86.9582 76.1058C86.8961 75.793 86.8969 75.4711 86.959 75.1585C87.0219 74.8458 87.1453 74.5486 87.3227 74.2837C93.3436 65.2806 95.9146 54.4062 94.563 43.6587C93.2122 32.9111 88.0291 23.0124 79.9678 15.7813C79.7306 15.5695 79.5374 15.3129 79.3993 15.0262C79.2611 14.7397 79.1808 14.4286 79.1628 14.111C79.1449 13.7933 79.1896 13.4752 79.2945 13.1749C79.3995 12.8745 79.5624 12.5978 79.7742 12.3604C79.9861 12.1231 80.2425 11.9298 80.529 11.7916C80.8154 11.6535 81.1267 11.5731 81.4436 11.5551C81.7614 11.5372 82.0791 11.5819 82.3791 11.6869C82.6799 11.7918 82.9566 11.9549 83.1936 12.1668C92.1267 20.1784 97.8686 31.1471 99.3638 43.0562C100.859 54.9651 98.0065 67.0137 91.3307 76.9866H91.3549Z" fill="white"/>
<path fill-rule="evenodd" clip-rule="evenodd" d="M73.5243 13.8608C73.5409 14.111 73.506 14.3619 73.4218 14.5981C73.3375 14.8342 73.2057 15.0505 73.0344 15.2337C72.8632 15.4167 72.6562 15.5627 72.4263 15.6625C72.1963 15.7623 71.9484 15.8138 71.6977 15.8138C71.4471 15.8138 71.1991 15.7623 70.9692 15.6625C70.7393 15.5627 70.5322 15.4167 70.361 15.2337C70.1897 15.0505 70.058 14.8342 69.9737 14.5981C69.8894 14.3619 69.8545 14.111 69.8711 13.8608V3.65454H67.5566V13.8608C67.5096 14.1479 67.3622 14.4089 67.1405 14.5972C66.9189 14.7855 66.6376 14.8888 66.3469 14.8888C66.0562 14.8888 65.7749 14.7855 65.5533 14.5972C65.3317 14.4089 65.1842 14.1479 65.1372 13.8608V3.65454H62.1453V13.8608C62.0983 14.1479 61.9509 14.4089 61.7292 14.5972C61.5076 14.7855 61.2263 14.8888 60.9356 14.8888C60.6449 14.8888 60.3636 14.7855 60.142 14.5972C59.9205 14.4089 59.773 14.1479 59.7259 13.8608V3.65454H56.734V13.8608C56.7538 14.0314 56.7372 14.2043 56.6854 14.3682C56.6336 14.532 56.5478 14.6829 56.4335 14.8112C56.3193 14.9395 56.1792 15.0421 56.0226 15.1124C55.8659 15.1828 55.696 15.2191 55.5243 15.2191C55.3526 15.2191 55.1828 15.1828 55.0261 15.1124C54.8694 15.0421 54.7294 14.9395 54.6151 14.8112C54.5009 14.6829 54.4151 14.532 54.3633 14.3682C54.3115 14.2043 54.2949 14.0314 54.3147 13.8608V3.65454H51.3227V13.8608C51.3425 14.0314 51.3259 14.2043 51.2741 14.3682C51.2223 14.532 51.1365 14.6829 51.0222 14.8112C50.908 14.9395 50.768 15.0421 50.6113 15.1124C50.4546 15.1828 50.2847 15.2191 50.113 15.2191C49.9413 15.2191 49.7715 15.1828 49.6148 15.1124C49.4581 15.0421 49.3181 14.9395 49.2038 14.8112C49.0896 14.6829 49.0038 14.532 48.952 14.3682C48.9002 14.2043 48.8836 14.0314 48.9034 13.8608V3.65454H45.9114V13.8608C45.9312 14.0314 45.9146 14.2043 45.8628 14.3682C45.811 14.532 45.7252 14.6829 45.6109 14.8112C45.4967 14.9395 45.3567 15.0421 45.2 15.1124C45.0433 15.1828 44.8734 15.2191 44.7017 15.2191C44.5301 15.2191 44.3602 15.1828 44.2035 15.1124C44.0468 15.0421 43.9068 14.9395 43.7926 14.8112C43.6783 14.6829 43.5925 14.532 43.5407 14.3682C43.4889 14.2043 43.4723 14.0314 43.4921 13.8608V3.65454H40.5001V13.8608C40.4658 14.1577 40.3236 14.4316 40.1005 14.6304C39.8776 14.8292 39.5892 14.9391 39.2905 14.9391C38.9917 14.9391 38.7034 14.8292 38.4804 14.6304C38.2573 14.4316 38.1151 14.1577 38.0808 13.8608V3.65454H35.0888V13.8608C35.0545 14.1577 34.9123 14.4316 34.6892 14.6304C34.4663 14.8292 34.1779 14.9391 33.8792 14.9391C33.5805 14.9391 33.2922 14.8292 33.0691 14.6304C32.846 14.4316 32.7038 14.1577 32.6695 13.8608V3.65454H29.8872V13.8608C29.9038 14.111 29.8689 14.3619 29.7847 14.5981C29.7005 14.8342 29.5686 15.0505 29.3973 15.2337C29.2261 15.4167 29.0191 15.5627 28.7892 15.6625C28.5592 15.7623 28.3113 15.8138 28.0606 15.8138C27.81 15.8138 27.562 15.7623 27.3321 15.6625C27.1022 15.5627 26.8951 15.4167 26.7239 15.2337C26.5526 15.0505 26.4209 14.8342 26.3366 14.5981C26.2523 14.3619 26.2174 14.111 26.234 13.8608V1.83113V1.78272V1.73431V1.6859V1.61329V1.54874C26.239 1.53575 26.239 1.52139 26.234 1.5084C26.234 1.5084 26.234 1.5084 26.234 1.45999C26.2348 1.44655 26.2348 1.43309 26.234 1.41965C26.2332 1.40621 26.2332 1.39275 26.234 1.37931C26.234 1.37931 26.234 1.37931 26.234 1.3309V1.29056C26.2297 1.27746 26.2297 1.26332 26.234 1.25022C26.2297 1.23712 26.2297 1.22298 26.234 1.20988C26.2305 1.19393 26.2305 1.17741 26.234 1.16147C26.234 1.16147 26.234 1.16147 26.234 1.12113V1.08079V1.04045V1.00011C26.4001 0.665962 26.6647 0.390865 26.9922 0.211956C27.3195 0.033048 27.6938 -0.0410558 28.0647 -0.00034977H71.6937C72.1792 -0.00034977 72.6448 0.192609 72.9881 0.536078C73.3314 0.879544 73.5243 1.34539 73.5243 1.83113V13.8608Z" fill="white"/>
<path fill-rule="evenodd" clip-rule="evenodd" d="M13.9519 90.8155L9.11317 93.6152L7.69385 91.1947L12.2906 88.5483C12.775 89.3527 13.3311 90.1111 13.9519 90.8155Z" fill="white"/>
<path fill-rule="evenodd" clip-rule="evenodd" d="M77.6208 15.4102L31.895 68.8619L35.9273 72.315L54.7579 60.7775C61.5724 50.1275 80.1128 25.8262 81.492 14.7889C81.9758 10.8194 81.9839 10.3191 77.6208 15.4102Z" fill="white"/>
<path fill-rule="evenodd" clip-rule="evenodd" d="M29.4436 65.3523C25.9239 64.4057 22.185 64.7095 18.8643 66.2121C15.5435 67.7147 12.8463 70.3229 11.2326 73.5923C9.6188 76.8617 9.18832 80.5897 10.0145 84.1415C10.8407 87.6923 12.8724 90.847 15.7633 93.0673C18.6542 95.2885 22.2253 96.4366 25.8681 96.318C29.5107 96.1994 32.9994 94.8197 35.7396 92.4154C38.4797 90.0111 40.3015 86.7306 40.8946 83.133C41.4877 79.5356 40.8153 75.8435 38.992 72.6863C36.9067 69.072 33.4723 66.434 29.4436 65.3523ZM20.1613 71.5164C22.2456 70.308 24.6843 69.86 27.0618 70.249C29.4392 70.6379 31.6082 71.8396 33.1993 73.6494C34.7903 75.4591 35.7048 77.7648 35.7869 80.1735C35.869 82.5819 35.1136 84.9451 33.6495 86.8589C32.1854 88.7726 30.1032 90.1192 27.7578 90.6695C25.4124 91.2197 22.9488 90.9389 20.787 89.8756C18.6253 88.8122 16.8991 87.0307 15.9027 84.837C14.9062 82.6424 14.7012 80.1704 15.3226 77.8419C15.6741 76.5212 16.2824 75.2827 17.1127 74.1973C17.9429 73.112 18.9789 72.2009 20.1613 71.5164Z" fill="white"/>
<path fill-rule="evenodd" clip-rule="evenodd" d="M22.1378 15.4102L67.8636 68.8619L63.8313 72.315L45.0007 60.7775C38.1862 50.1275 19.6458 25.8262 18.2668 14.7889C17.7426 10.8194 17.7426 10.3191 22.1378 15.4102Z" fill="white"/>
<path fill-rule="evenodd" clip-rule="evenodd" d="M70.3144 65.3519C73.8306 64.4101 77.5644 64.7173 80.88 66.2208C84.1953 67.7244 86.8864 70.3316 88.4961 73.598C90.105 76.8644 90.5324 80.588 89.7058 84.1346C88.8784 87.6806 86.8477 90.8304 83.9598 93.0467C81.0711 95.2639 77.5045 96.4096 73.8664 96.2901C70.2284 96.1707 66.7443 94.7927 64.0079 92.3908C61.2714 89.9897 59.4519 86.7132 58.8593 83.1205C58.2668 79.527 58.9377 75.8395 60.758 72.6859C61.7914 70.8954 63.1673 69.3262 64.807 68.0678C66.4468 66.8094 68.3182 65.8866 70.3144 65.3519ZM79.5967 71.516C77.511 70.3058 75.0702 69.8568 72.6905 70.2455C70.3109 70.6342 68.1396 71.8365 66.5468 73.6477C64.9542 75.4587 64.0385 77.7664 63.9562 80.1773C63.8739 82.5879 64.6298 84.9527 66.0952 86.8689C67.5606 88.7843 69.6448 90.1325 71.9923 90.6828C74.3399 91.233 76.8056 90.9514 78.9691 89.8864C81.1324 88.8222 82.8598 87.0392 83.8566 84.843C84.8534 82.646 85.0582 80.1719 84.4356 77.8414C83.7243 75.1745 81.984 72.8992 79.5967 71.516Z" fill="white"/>
<path fill-rule="evenodd" clip-rule="evenodd" d="M25.3706 74.0091C23.8613 74.009 22.3984 74.5323 21.2315 75.4902C20.0647 76.4481 19.2658 77.7812 18.9712 79.2622C18.6765 80.7428 18.9043 82.2806 19.6157 83.6127C20.3271 84.9447 21.478 85.988 22.8726 86.5664C24.267 87.1441 25.8186 87.2208 27.2631 86.7827C28.7076 86.3446 29.9555 85.4183 30.7942 84.1629C31.6329 82.9075 32.0105 81.3996 31.8627 79.8971C31.7149 78.3943 31.0508 76.9892 29.9835 75.9213C29.3786 75.3141 28.6596 74.8326 27.868 74.5044C27.0763 74.1762 26.2276 74.0079 25.3706 74.0091ZM19.8948 75.0338C21.1608 73.7725 22.8247 72.9891 24.603 72.8171C26.3814 72.6451 28.1643 73.0951 29.6484 74.0904C31.1324 75.0857 32.2258 76.5648 32.7423 78.2759C33.2589 79.9871 33.1667 81.8248 32.4814 83.4755C31.7961 85.1263 30.5601 86.4882 28.9839 87.3297C27.4076 88.1712 25.5886 88.4399 23.8364 88.0905C22.0842 87.7412 20.5072 86.7956 19.3739 85.4135C18.2405 84.0314 17.621 82.2992 17.6206 80.5121C17.6182 79.4938 17.818 78.4851 18.2085 77.5447C18.5989 76.6043 19.1721 75.7508 19.8948 75.0338Z" fill="white"/>
<path fill-rule="evenodd" clip-rule="evenodd" d="M74.3874 74.0093C72.8794 74.0166 71.4204 74.5463 70.2587 75.5083C69.0971 76.4703 68.3043 77.8053 68.0154 79.286C67.7266 80.7664 67.9593 82.3018 68.6742 83.6306C69.389 84.9587 70.5417 85.9986 71.9363 86.5723C73.3309 87.1468 74.8812 87.2194 76.3235 86.7788C77.7658 86.3391 79.0112 85.4121 79.8475 84.1567C80.6841 82.9013 81.0599 81.3949 80.9115 79.8934C80.7623 78.392 80.0988 76.9884 79.0326 75.9215C78.4292 75.3121 77.7105 74.8292 76.9185 74.5008C76.1265 74.1726 75.277 74.0055 74.4196 74.0093H74.3874ZM68.9116 75.034C70.1788 73.7645 71.8467 72.9739 73.6312 72.7971C75.4158 72.6202 77.2063 73.0679 78.6979 74.0638C80.1895 75.0598 81.2897 76.5424 81.8107 78.259C82.3325 79.9756 82.2421 81.8201 81.5567 83.4773C80.8704 85.1353 79.6316 86.5037 78.0503 87.3501C76.469 88.1964 74.6433 88.4675 72.8845 88.1174C71.1257 87.768 69.5425 86.8184 68.4048 85.4315C67.2671 84.0453 66.6454 82.3066 66.6455 80.5123C66.6437 79.4948 66.8431 78.487 67.2321 77.5469C67.6209 76.6067 68.1917 75.7527 68.9116 75.034Z" fill="white"/>
</g>
<path d="M24.395 137.333C23.1907 137.333 22.0767 137.115 21.0531 136.678C20.0294 136.242 19.1337 135.632 18.366 134.848C17.5982 134.065 16.996 133.147 16.5595 132.092C16.138 131.038 15.9272 129.886 15.9272 128.636C15.9272 127.386 16.1305 126.234 16.5369 125.179C16.9585 124.11 17.5456 123.191 18.2982 122.423C19.066 121.64 19.9617 121.038 20.9853 120.616C22.0089 120.18 23.123 119.961 24.3272 119.961C25.5315 119.961 26.6079 120.164 27.5563 120.571C28.5197 120.978 29.3326 121.52 29.995 122.197C30.6573 122.86 31.1315 123.591 31.4176 124.389L28.6853 125.699C28.3692 124.825 27.8347 124.118 27.0821 123.575C26.3294 123.033 25.4111 122.762 24.3272 122.762C23.2735 122.762 22.3401 123.011 21.5272 123.508C20.7294 124.005 20.1047 124.69 19.6531 125.563C19.2165 126.437 18.9982 127.461 18.9982 128.636C18.9982 129.811 19.224 130.842 19.6756 131.731C20.1423 132.605 20.7821 133.29 21.595 133.787C22.4079 134.284 23.3412 134.532 24.395 134.532C25.2531 134.532 26.0434 134.367 26.766 134.035C27.4885 133.689 28.0681 133.206 28.5047 132.589C28.9412 131.957 29.1595 131.211 29.1595 130.353V129.065L30.5595 130.285H24.3272V127.687H32.2305V129.381C32.2305 130.676 32.0122 131.821 31.5756 132.815C31.1391 133.809 30.5444 134.645 29.7918 135.323C29.0541 135.985 28.2186 136.49 27.2853 136.836C26.352 137.168 25.3885 137.333 24.395 137.333ZM40.4186 137.333C39.2143 137.333 38.1154 137.055 37.1218 136.497C36.1434 135.94 35.3606 135.18 34.7735 134.216C34.2014 133.252 33.9154 132.153 33.9154 130.918C33.9154 129.682 34.2014 128.583 34.7735 127.619C35.3606 126.655 36.1434 125.895 37.1218 125.338C38.1003 124.78 39.1993 124.502 40.4186 124.502C41.6229 124.502 42.7143 124.78 43.6928 125.338C44.6713 125.895 45.4466 126.655 46.0186 127.619C46.6057 128.568 46.8993 129.668 46.8993 130.918C46.8993 132.153 46.6057 133.252 46.0186 134.216C45.4315 135.18 44.6487 135.94 43.6702 136.497C42.6918 137.055 41.6079 137.333 40.4186 137.333ZM40.4186 134.622C41.081 134.622 41.6605 134.464 42.1573 134.148C42.6692 133.832 43.0681 133.395 43.3541 132.838C43.6551 132.266 43.8057 131.625 43.8057 130.918C43.8057 130.195 43.6551 129.562 43.3541 129.02C43.0681 128.462 42.6692 128.026 42.1573 127.71C41.6605 127.378 41.081 127.213 40.4186 127.213C39.7412 127.213 39.1466 127.378 38.6347 127.71C38.1229 128.026 37.7164 128.462 37.4154 129.02C37.1293 129.562 36.9864 130.195 36.9864 130.918C36.9864 131.625 37.1293 132.266 37.4154 132.838C37.7164 133.395 38.1229 133.832 38.6347 134.148C39.1466 134.464 39.7412 134.622 40.4186 134.622ZM55.8489 137.333C54.9608 137.333 54.1403 137.16 53.3876 136.814C52.65 136.452 52.0629 135.94 51.6264 135.278L51.9199 134.69V137.062H49.1425V119.961H52.1006V127.213L51.6489 126.603C52.0705 125.94 52.6425 125.428 53.3651 125.066C54.0876 124.69 54.9231 124.502 55.8715 124.502C57.0306 124.502 58.0769 124.788 59.0102 125.36C59.9435 125.932 60.6812 126.7 61.2231 127.664C61.7801 128.629 62.0586 129.713 62.0586 130.918C62.0586 132.108 61.7877 133.192 61.2457 134.171C60.7038 135.149 59.9661 135.925 59.0328 136.497C58.0995 137.055 57.0382 137.333 55.8489 137.333ZM55.5102 134.622C56.1876 134.622 56.7898 134.464 57.3167 134.148C57.8435 133.832 58.25 133.395 58.536 132.838C58.8371 132.28 58.9876 131.64 58.9876 130.918C58.9876 130.195 58.8371 129.562 58.536 129.02C58.25 128.462 57.8435 128.026 57.3167 127.71C56.7898 127.378 56.1876 127.213 55.5102 127.213C54.8629 127.213 54.2758 127.371 53.7489 127.687C53.2371 128.003 52.8306 128.448 52.5296 129.02C52.2435 129.577 52.1006 130.21 52.1006 130.918C52.1006 131.64 52.2435 132.28 52.5296 132.838C52.8306 133.395 53.2371 133.832 53.7489 134.148C54.2758 134.464 54.8629 134.622 55.5102 134.622ZM68.0397 137.333C67.1816 137.333 66.4364 137.191 65.8042 136.904C65.1719 136.618 64.6826 136.211 64.3364 135.684C63.9902 135.142 63.8171 134.517 63.8171 133.809C63.8171 133.131 63.9676 132.529 64.2687 132.002C64.5697 131.46 65.0364 131.008 65.6687 130.646C66.301 130.285 67.0988 130.029 68.0622 129.878L72.0816 129.223V131.482L68.6268 132.07C68.0397 132.175 67.6031 132.363 67.3171 132.634C67.031 132.906 66.8881 133.26 66.8881 133.696C66.8881 134.118 67.0461 134.457 67.3622 134.713C67.6935 134.954 68.0999 135.074 68.5816 135.074C69.1988 135.074 69.7407 134.946 70.2074 134.69C70.6891 134.419 71.058 134.05 71.3139 133.583C71.5848 133.116 71.7203 132.605 71.7203 132.047V128.884C71.7203 128.357 71.5096 127.92 71.088 127.574C70.6816 127.213 70.1397 127.032 69.4622 127.032C68.83 127.032 68.2655 127.205 67.7687 127.551C67.287 127.883 66.9332 128.327 66.7074 128.884L64.2913 127.71C64.5322 127.062 64.9085 126.505 65.4203 126.038C65.9472 125.556 66.5644 125.179 67.2719 124.908C67.9794 124.637 68.7472 124.502 69.5751 124.502C70.5838 124.502 71.4719 124.69 72.2397 125.066C73.0074 125.428 73.602 125.94 74.0235 126.603C74.4601 127.251 74.6784 128.011 74.6784 128.884V137.062H71.8784V134.961L72.5106 134.916C72.1945 135.443 71.8181 135.888 71.3816 136.249C70.9451 136.595 70.4483 136.866 69.8913 137.062C69.3343 137.243 68.7171 137.333 68.0397 137.333ZM77.4124 137.062V124.773H80.1898V127.506L79.964 127.1C80.2501 126.181 80.6945 125.541 81.2961 125.179C81.9139 124.818 82.651 124.637 83.509 124.637H84.2316V127.258H83.1703C82.3276 127.258 81.6501 127.522 81.1381 128.048C80.6264 128.561 80.3705 129.284 80.3705 130.217V137.062H77.4124Z" fill="white"/>
</svg>
