<svg width="16" height="16" viewBox="0 0 16 16" fill="none" xmlns="http://www.w3.org/2000/svg">
<path fill-rule="evenodd" clip-rule="evenodd" d="M7.99984 1.33337C5.05432 1.33337 2.6665 4.00176 2.6665 7.00004C2.6665 9.97482 4.36872 13.2083 7.02455 14.4497C7.64367 14.7391 8.35601 14.7391 8.97513 14.4497C11.631 13.2083 13.3332 9.97482 13.3332 7.00004C13.3332 4.00176 10.9454 1.33337 7.99984 1.33337ZM7.99984 8.00004C8.73622 8.00004 9.33317 7.40309 9.33317 6.66671C9.33317 5.93033 8.73622 5.33337 7.99984 5.33337C7.26346 5.33337 6.6665 5.93033 6.6665 6.66671C6.6665 7.40309 7.26346 8.00004 7.99984 8.00004Z" fill="#363062"/>
</svg>
