<svg width="19" height="24" viewBox="0 0 19 24" fill="none" xmlns="http://www.w3.org/2000/svg">
<g clip-path="url(#clip0_13_16941)">
<path d="M5.65527 17.7786C6.36605 18.6631 7.01294 19.5949 7.59128 20.5672C8.08507 21.4815 8.29092 22.1015 8.65179 23.2032C8.87311 23.8119 9.07313 23.9936 9.50317 23.9936C9.97179 23.9936 10.1844 23.6845 10.3487 23.2066C10.6898 22.1661 10.9574 21.3721 11.3797 20.6218C12.2083 19.1733 13.238 17.8862 14.2497 16.6491C14.5236 16.299 16.2944 14.2592 17.0916 12.6498C17.0916 12.6498 18.0714 10.8818 18.0714 8.4127C18.0714 6.10307 17.1051 4.50122 17.1051 4.50122L14.3231 5.22881L12.6336 9.57438L12.2156 10.1736L12.132 10.2821L12.0208 10.418L11.8257 10.6351L11.5469 10.9073L10.0424 12.1043L6.28099 14.2252L5.65527 17.7786Z" fill="#34A853"/>
<path d="M1.77344 12.3526C2.69145 14.4003 4.46172 16.2004 5.65944 17.78L12.0211 10.4209C12.0211 10.4209 11.1249 11.5655 9.49911 11.5655C7.68819 11.5655 6.22522 10.1533 6.22522 8.37263C6.22522 7.15151 6.9775 6.31262 6.9775 6.31262L2.65904 7.44265L1.77344 12.3526Z" fill="#FBBC04"/>
<path d="M12.0922 0.378483C14.2051 1.04375 16.0135 2.44039 17.1074 4.49988L12.0231 10.4167C12.0231 10.4167 12.7754 9.56263 12.7754 8.3491C12.7754 6.52693 11.2042 5.16566 9.50688 5.16566C7.90181 5.16566 6.97998 6.30844 6.97998 6.30844V2.58092L12.0922 0.378418V0.378483Z" fill="#4285F4"/>
<path d="M2.93848 2.99281C4.20042 1.51834 6.42095 0 9.48229 0C10.9676 0 12.0865 0.380796 12.0865 0.380796L6.97475 6.31167H3.35299L2.93848 2.99281Z" fill="#1A73E8"/>
<path d="M1.77326 12.3526C1.77326 12.3526 0.928711 10.7375 0.928711 8.39764C0.928711 6.18617 1.80902 4.25309 2.93864 2.9928L6.9778 6.31219L1.77326 12.3526Z" fill="#EA4335"/>
</g>
<defs>
<clipPath id="clip0_13_16941">
<rect width="17.1429" height="24" fill="white" transform="translate(0.928711)"/>
</clipPath>
</defs>
</svg>
