<svg width="17" height="16" viewBox="0 0 17 16" fill="none" xmlns="http://www.w3.org/2000/svg">
<path d="M6.60227 3.60562C7.44671 2.09079 7.86892 1.33337 8.50016 1.33337C9.1314 1.33337 9.55362 2.09079 10.3981 3.60562L10.6165 3.99753C10.8565 4.428 10.9765 4.64323 11.1635 4.78525C11.3506 4.92726 11.5836 4.97997 12.0496 5.08541L12.4738 5.18139C14.1136 5.55241 14.9335 5.73792 15.1285 6.36519C15.3236 6.99247 14.7647 7.64609 13.6468 8.95332L13.3576 9.29152C13.0399 9.663 12.881 9.84873 12.8096 10.0785C12.7381 10.3083 12.7621 10.5561 12.8102 11.0517L12.8539 11.503C13.0229 13.2471 13.1074 14.1192 12.5967 14.5069C12.086 14.8945 11.3184 14.5411 9.78305 13.8342L9.38584 13.6513C8.94955 13.4504 8.7314 13.3499 8.50016 13.3499C8.26893 13.3499 8.05078 13.4504 7.61449 13.6513L7.21728 13.8342C5.68195 14.5411 4.91428 14.8945 4.40359 14.5069C3.89291 14.1192 3.97742 13.2471 4.14643 11.503L4.19015 11.0517C4.23818 10.5561 4.26219 10.3083 4.19074 10.0785C4.11928 9.84873 3.96045 9.663 3.64278 9.29152L3.35356 8.95332C2.23566 7.64609 1.67671 6.99247 1.87178 6.36519C2.06684 5.73792 2.88673 5.55241 4.52652 5.18139L4.95075 5.08541C5.41673 4.97997 5.64972 4.92726 5.83679 4.78525C6.02387 4.64323 6.14385 4.428 6.38381 3.99753L6.60227 3.60562Z" fill="#8683A1"/>
</svg>
