<svg width="117" height="118" viewBox="0 0 117 118" fill="none" xmlns="http://www.w3.org/2000/svg">
<path fill-rule="evenodd" clip-rule="evenodd" d="M44.4558 7.66821C43.0352 8.87881 42.3249 9.48416 41.5663 9.9926C39.8273 11.1581 37.8744 11.967 35.8207 12.3725C34.9247 12.5494 33.9944 12.6236 32.1339 12.7721C27.4591 13.1452 25.1218 13.3317 23.1717 14.0205C18.6614 15.6136 15.1137 19.1613 13.5206 23.6716C12.8318 25.6216 12.6453 27.959 12.2722 32.6338C12.1238 34.4943 12.0495 35.4246 11.8726 36.3205C11.4672 38.3743 10.6582 40.3272 9.49272 42.0661C8.98427 42.8247 8.37896 43.535 7.16833 44.9556C4.12662 48.5249 2.60569 50.3096 1.71384 52.1756C-0.348949 56.4913 -0.348949 61.5086 1.71384 65.8243C2.6057 67.6903 4.12657 69.4749 7.16833 73.0443C8.37882 74.4647 8.9843 75.1752 9.49272 75.9338C10.6582 77.6727 11.4672 79.6256 11.8726 81.6794C12.0495 82.5753 12.1238 83.5056 12.2722 85.3661C12.6453 90.0409 12.8318 92.3783 13.5206 94.3283C15.1137 98.8386 18.6614 102.386 23.1717 103.979C25.1218 104.668 27.4591 104.855 32.1339 105.228C33.9944 105.376 34.9247 105.451 35.8207 105.627C37.8744 106.033 39.8273 106.842 41.5663 108.007C42.3249 108.516 43.0352 109.121 44.4558 110.332C48.0251 113.373 49.8098 114.894 51.6757 115.786C55.9915 117.849 61.0087 117.849 65.3245 115.786C67.1904 114.894 68.9751 113.373 72.5444 110.332C73.965 109.121 74.6753 108.516 75.4339 108.007C77.1728 106.842 79.1257 106.033 81.1795 105.627C82.0754 105.451 83.0057 105.376 84.8663 105.228C89.541 104.855 91.8784 104.668 93.8285 103.979C98.3388 102.386 101.886 98.8387 103.48 94.3283C104.168 92.3783 104.355 90.0409 104.728 85.3661C104.876 83.5056 104.951 82.5753 105.128 81.6794C105.533 79.6256 106.342 77.6727 107.507 75.9338C108.016 75.1752 108.621 74.4649 109.832 73.0443C112.874 69.4749 114.394 67.6903 115.286 65.8243C117.349 61.5086 117.349 56.4913 115.286 52.1756C114.394 50.3096 112.874 48.525 109.832 44.9556C108.621 43.535 108.016 42.8247 107.507 42.0661C106.342 40.3272 105.533 38.3743 105.128 36.3205C104.951 35.4246 104.876 34.4943 104.728 32.6338C104.355 27.959 104.168 25.6216 103.48 23.6716C101.886 19.1613 98.3388 15.6136 93.8285 14.0205C91.8784 13.3317 89.541 13.1452 84.8663 12.7721C83.0057 12.6236 82.0754 12.5494 81.1795 12.3725C79.1257 11.967 77.1728 11.1581 75.4339 9.9926C74.6753 9.48415 73.965 8.87884 72.5444 7.66821C68.9751 4.62645 67.1904 3.10557 65.3245 2.21372C61.0087 0.150929 55.9915 0.150929 51.6757 2.21372C49.8098 3.10557 48.0251 4.62649 44.4558 7.66821ZM84.0121 46.5349C85.8661 44.6809 85.8661 41.6749 84.0121 39.8209C82.1581 37.9669 79.1521 37.9669 77.2981 39.8209L49.005 68.114L39.7019 58.811C37.8479 56.957 34.8419 56.957 32.9879 58.811C31.1339 60.665 31.1339 63.671 32.9879 65.525L45.648 78.185C47.502 80.039 50.5079 80.039 52.362 78.185L84.0121 46.5349Z" fill="white"/>
</svg>
